# xmcd CD database file
#
# Track frame offsets:
#	150
#	15212
#	30226
#	36740
#	57419
#	61144
#	79167
#	97585
#	101205
#	110786
#	125214
#	146377
#	157166
#	171427
#	191310
#	210437
#	215834
#
# Disc length: 3188 seconds
#
# Revision: 1
# Processed by: cddbd v1.5.2PL0 Copyright (c) Steve Scherf et al.
# Submitted via: CDex 1.51
#
DISCID=f00c7211
DTITLE=DORLE FERBER  - Stroh zu Gold
DYEAR=2010
DGENRE=Jazz
TTITLE0=Maerchen
TTITLE1=Sommerlichter
TTITLE2=Wegwartenmantra
TTITLE3=Stroh zu Gold
TTITLE4=Prinz Birne
TTITLE5=Und immer dem Lauf der Donau nach
TTITLE6=Waldelfenbeingelaechter
TTITLE7=Gunung Merapi
TTITLE8=Meine Augen folgen den Wildgaensen
TTITLE9=Kleine Spiele
TTITLE10=Weltenritt
TTITLE11=Mutiger Engel bleib
TTITLE12=Ueber die Freiheit
TTITLE13=Tanah air Was ist Heimat
TTITLE14=TaiJai von Taisersdorf nach Jaipur
TTITLE15=Durch den Brunnen gefallen
TTITLE16=Die schoene Lau
EXTD=YEAR: 2010
EXTT0=
EXTT1=
EXTT2=
EXTT3=
EXTT4=
EXTT5=
EXTT6=
EXTT7=
EXTT8=
EXTT9=
EXTT10=
EXTT11=
EXTT12=
EXTT13=
EXTT14=
EXTT15=
EXTT16=
PLAYORDER=
